<mxfile host="app.diagrams.net" modified="2023-07-31T06:54:42.848Z" agent="Mozilla/5.0 (Macintosh; Intel Mac OS X 10_15_7) AppleWebKit/537.36 (KHTML, like Gecko) Chrome/114.0.0.0 Safari/537.36 Edg/114.0.1823.43" version="21.1.7" etag="vAoub5sAWAiU4z4x3wPc" type="github">
  <diagram name="Page-1" id="iv9jLA8Hhx0ddgL_Jxwx">
    <mxGraphModel>
      <root>
        <mxCell id="0" />
        <mxCell id="1" parent="0" />
      </root>
    </mxGraphModel>
  </diagram>
</mxfile>
